<?xml version="1.0" encoding="utf-8" standalone="no"?>
<!DOCTYPE svg PUBLIC "-//W3C//DTD SVG 1.1//EN"
  "http://www.w3.org/Graphics/SVG/1.1/DTD/svg11.dtd">
<svg xmlns:xlink="http://www.w3.org/1999/xlink" width="720pt" height="576pt" viewBox="0 0 720 576" xmlns="http://www.w3.org/2000/svg" version="1.1">
 <metadata>
  <rdf:RDF xmlns:dc="http://purl.org/dc/elements/1.1/" xmlns:cc="http://creativecommons.org/ns#" xmlns:rdf="http://www.w3.org/1999/02/22-rdf-syntax-ns#">
   <cc:Work>
    <dc:type rdf:resource="http://purl.org/dc/dcmitype/StillImage"/>
    <dc:date>2026-01-24T10:15:52.854483</dc:date>
    <dc:format>image/svg+xml</dc:format>
    <dc:creator>
     <cc:Agent>
      <dc:title>Matplotlib v3.10.8, https://matplotlib.org/</dc:title>
     </cc:Agent>
    </dc:creator>
   </cc:Work>
  </rdf:RDF>
 </metadata>
 <defs>
  <style type="text/css">*{stroke-linejoin: round; stroke-linecap: butt}</style>
 </defs>
 <g id="figure_1">
  <g id="patch_1">
   <path d="M 0 576 
L 720 576 
L 720 0 
L 0 0 
z
" style="fill: #ffffff"/>
  </g>
  <g id="axes_1">
   <g id="patch_2">
    <path d="M 90 512.64 
L 648 512.64 
L 648 69.12 
L 90 69.12 
z
" style="fill: #ffffff"/>
   </g>
   <g id="matplotlib.axis_1">
    <g id="xtick_1">
     <g id="line2d_1">
      <path d="M 90 512.64 
L 90 69.12 
" clip-path="url(#pfcdcbafcaf)" style="fill: none; stroke: #b0b0b0; stroke-opacity: 0.5; stroke-width: 0.8; stroke-linecap: square"/>
     </g>
     <g id="line2d_2">
      <defs>
       <path id="m85150480ef" d="M 0 0 
L 0 3.5 
" style="stroke: #000000; stroke-width: 0.8"/>
      </defs>
      <g>
       <use xlink:href="#m85150480ef" x="90" y="512.64" style="stroke: #000000; stroke-width: 0.8"/>
      </g>
     </g>
     <g id="text_1">
      <!-- −10.0 -->
      <g transform="translate(74.677344 527.238438) scale(0.1 -0.1)">
       <defs>
        <path id="DejaVuSans-2212" d="M 678 2272 
L 4684 2272 
L 4684 1741 
L 678 1741 
L 678 2272 
z
" transform="scale(0.015625)"/>
        <path id="DejaVuSans-31" d="M 794 531 
L 1825 531 
L 1825 4091 
L 703 3866 
L 703 4441 
L 1819 4666 
L 2450 4666 
L 2450 531 
L 3481 531 
L 3481 0 
L 794 0 
L 794 531 
z
" transform="scale(0.015625)"/>
        <path id="DejaVuSans-30" d="M 2034 4250 
Q 1547 4250 1301 3770 
Q 1056 3291 1056 2328 
Q 1056 1369 1301 889 
Q 1547 409 2034 409 
Q 2525 409 2770 889 
Q 3016 1369 3016 2328 
Q 3016 3291 2770 3770 
Q 2525 4250 2034 4250 
z
M 2034 4750 
Q 2819 4750 3233 4129 
Q 3647 3509 3647 2328 
Q 3647 1150 3233 529 
Q 2819 -91 2034 -91 
Q 1250 -91 836 529 
Q 422 1150 422 2328 
Q 422 3509 836 4129 
Q 1250 4750 2034 4750 
z
" transform="scale(0.015625)"/>
        <path id="DejaVuSans-2e" d="M 684 794 
L 1344 794 
L 1344 0 
L 684 0 
L 684 794 
z
" transform="scale(0.015625)"/>
       </defs>
       <use xlink:href="#DejaVuSans-2212"/>
       <use xlink:href="#DejaVuSans-31" transform="translate(83.789062 0)"/>
       <use xlink:href="#DejaVuSans-30" transform="translate(147.412109 0)"/>
       <use xlink:href="#DejaVuSans-2e" transform="translate(211.035156 0)"/>
       <use xlink:href="#DejaVuSans-30" transform="translate(242.822266 0)"/>
      </g>
     </g>
    </g>
    <g id="xtick_2">
     <g id="line2d_3">
      <path d="M 159.75 512.64 
L 159.75 69.12 
" clip-path="url(#pfcdcbafcaf)" style="fill: none; stroke: #b0b0b0; stroke-opacity: 0.5; stroke-width: 0.8; stroke-linecap: square"/>
     </g>
     <g id="line2d_4">
      <g>
       <use xlink:href="#m85150480ef" x="159.75" y="512.64" style="stroke: #000000; stroke-width: 0.8"/>
      </g>
     </g>
     <g id="text_2">
      <!-- −7.5 -->
      <g transform="translate(147.608594 527.238438) scale(0.1 -0.1)">
       <defs>
        <path id="DejaVuSans-37" d="M 525 4666 
L 3525 4666 
L 3525 4397 
L 1831 0 
L 1172 0 
L 2766 4134 
L 525 4134 
L 525 4666 
z
" transform="scale(0.015625)"/>
        <path id="DejaVuSans-35" d="M 691 4666 
L 3169 4666 
L 3169 4134 
L 1269 4134 
L 1269 2991 
Q 1406 3038 1543 3061 
Q 1681 3084 1819 3084 
Q 2600 3084 3056 2656 
Q 3513 2228 3513 1497 
Q 3513 744 3044 326 
Q 2575 -91 1722 -91 
Q 1428 -91 1123 -41 
Q 819 9 494 109 
L 494 744 
Q 775 591 1075 516 
Q 1375 441 1709 441 
Q 2250 441 2565 725 
Q 2881 1009 2881 1497 
Q 2881 1984 2565 2268 
Q 2250 2553 1709 2553 
Q 1456 2553 1204 2497 
Q 953 2441 691 2322 
L 691 4666 
z
" transform="scale(0.015625)"/>
       </defs>
       <use xlink:href="#DejaVuSans-2212"/>
       <use xlink:href="#DejaVuSans-37" transform="translate(83.789062 0)"/>
       <use xlink:href="#DejaVuSans-2e" transform="translate(147.412109 0)"/>
       <use xlink:href="#DejaVuSans-35" transform="translate(179.199219 0)"/>
      </g>
     </g>
    </g>
    <g id="xtick_3">
     <g id="line2d_5">
      <path d="M 229.5 512.64 
L 229.5 69.12 
" clip-path="url(#pfcdcbafcaf)" style="fill: none; stroke: #b0b0b0; stroke-opacity: 0.5; stroke-width: 0.8; stroke-linecap: square"/>
     </g>
     <g id="line2d_6">
      <g>
       <use xlink:href="#m85150480ef" x="229.5" y="512.64" style="stroke: #000000; stroke-width: 0.8"/>
      </g>
     </g>
     <g id="text_3">
      <!-- −5.0 -->
      <g transform="translate(217.358594 527.238438) scale(0.1 -0.1)">
       <use xlink:href="#DejaVuSans-2212"/>
       <use xlink:href="#DejaVuSans-35" transform="translate(83.789062 0)"/>
       <use xlink:href="#DejaVuSans-2e" transform="translate(147.412109 0)"/>
       <use xlink:href="#DejaVuSans-30" transform="translate(179.199219 0)"/>
      </g>
     </g>
    </g>
    <g id="xtick_4">
     <g id="line2d_7">
      <path d="M 299.25 512.64 
L 299.25 69.12 
" clip-path="url(#pfcdcbafcaf)" style="fill: none; stroke: #b0b0b0; stroke-opacity: 0.5; stroke-width: 0.8; stroke-linecap: square"/>
     </g>
     <g id="line2d_8">
      <g>
       <use xlink:href="#m85150480ef" x="299.25" y="512.64" style="stroke: #000000; stroke-width: 0.8"/>
      </g>
     </g>
     <g id="text_4">
      <!-- −2.5 -->
      <g transform="translate(287.108594 527.238438) scale(0.1 -0.1)">
       <defs>
        <path id="DejaVuSans-32" d="M 1228 531 
L 3431 531 
L 3431 0 
L 469 0 
L 469 531 
Q 828 903 1448 1529 
Q 2069 2156 2228 2338 
Q 2531 2678 2651 2914 
Q 2772 3150 2772 3378 
Q 2772 3750 2511 3984 
Q 2250 4219 1831 4219 
Q 1534 4219 1204 4116 
Q 875 4013 500 3803 
L 500 4441 
Q 881 4594 1212 4672 
Q 1544 4750 1819 4750 
Q 2544 4750 2975 4387 
Q 3406 4025 3406 3419 
Q 3406 3131 3298 2873 
Q 3191 2616 2906 2266 
Q 2828 2175 2409 1742 
Q 1991 1309 1228 531 
z
" transform="scale(0.015625)"/>
       </defs>
       <use xlink:href="#DejaVuSans-2212"/>
       <use xlink:href="#DejaVuSans-32" transform="translate(83.789062 0)"/>
       <use xlink:href="#DejaVuSans-2e" transform="translate(147.412109 0)"/>
       <use xlink:href="#DejaVuSans-35" transform="translate(179.199219 0)"/>
      </g>
     </g>
    </g>
    <g id="xtick_5">
     <g id="line2d_9">
      <path d="M 369 512.64 
L 369 69.12 
" clip-path="url(#pfcdcbafcaf)" style="fill: none; stroke: #b0b0b0; stroke-opacity: 0.5; stroke-width: 0.8; stroke-linecap: square"/>
     </g>
     <g id="line2d_10">
      <g>
       <use xlink:href="#m85150480ef" x="369" y="512.64" style="stroke: #000000; stroke-width: 0.8"/>
      </g>
     </g>
     <g id="text_5">
      <!-- 0.0 -->
      <g transform="translate(361.048437 527.238438) scale(0.1 -0.1)">
       <use xlink:href="#DejaVuSans-30"/>
       <use xlink:href="#DejaVuSans-2e" transform="translate(63.623047 0)"/>
       <use xlink:href="#DejaVuSans-30" transform="translate(95.410156 0)"/>
      </g>
     </g>
    </g>
    <g id="xtick_6">
     <g id="line2d_11">
      <path d="M 438.75 512.64 
L 438.75 69.12 
" clip-path="url(#pfcdcbafcaf)" style="fill: none; stroke: #b0b0b0; stroke-opacity: 0.5; stroke-width: 0.8; stroke-linecap: square"/>
     </g>
     <g id="line2d_12">
      <g>
       <use xlink:href="#m85150480ef" x="438.75" y="512.64" style="stroke: #000000; stroke-width: 0.8"/>
      </g>
     </g>
     <g id="text_6">
      <!-- 2.5 -->
      <g transform="translate(430.798437 527.238438) scale(0.1 -0.1)">
       <use xlink:href="#DejaVuSans-32"/>
       <use xlink:href="#DejaVuSans-2e" transform="translate(63.623047 0)"/>
       <use xlink:href="#DejaVuSans-35" transform="translate(95.410156 0)"/>
      </g>
     </g>
    </g>
    <g id="xtick_7">
     <g id="line2d_13">
      <path d="M 508.5 512.64 
L 508.5 69.12 
" clip-path="url(#pfcdcbafcaf)" style="fill: none; stroke: #b0b0b0; stroke-opacity: 0.5; stroke-width: 0.8; stroke-linecap: square"/>
     </g>
     <g id="line2d_14">
      <g>
       <use xlink:href="#m85150480ef" x="508.5" y="512.64" style="stroke: #000000; stroke-width: 0.8"/>
      </g>
     </g>
     <g id="text_7">
      <!-- 5.0 -->
      <g transform="translate(500.548437 527.238438) scale(0.1 -0.1)">
       <use xlink:href="#DejaVuSans-35"/>
       <use xlink:href="#DejaVuSans-2e" transform="translate(63.623047 0)"/>
       <use xlink:href="#DejaVuSans-30" transform="translate(95.410156 0)"/>
      </g>
     </g>
    </g>
    <g id="xtick_8">
     <g id="line2d_15">
      <path d="M 578.25 512.64 
L 578.25 69.12 
" clip-path="url(#pfcdcbafcaf)" style="fill: none; stroke: #b0b0b0; stroke-opacity: 0.5; stroke-width: 0.8; stroke-linecap: square"/>
     </g>
     <g id="line2d_16">
      <g>
       <use xlink:href="#m85150480ef" x="578.25" y="512.64" style="stroke: #000000; stroke-width: 0.8"/>
      </g>
     </g>
     <g id="text_8">
      <!-- 7.5 -->
      <g transform="translate(570.298437 527.238438) scale(0.1 -0.1)">
       <use xlink:href="#DejaVuSans-37"/>
       <use xlink:href="#DejaVuSans-2e" transform="translate(63.623047 0)"/>
       <use xlink:href="#DejaVuSans-35" transform="translate(95.410156 0)"/>
      </g>
     </g>
    </g>
    <g id="xtick_9">
     <g id="line2d_17">
      <path d="M 648 512.64 
L 648 69.12 
" clip-path="url(#pfcdcbafcaf)" style="fill: none; stroke: #b0b0b0; stroke-opacity: 0.5; stroke-width: 0.8; stroke-linecap: square"/>
     </g>
     <g id="line2d_18">
      <g>
       <use xlink:href="#m85150480ef" x="648" y="512.64" style="stroke: #000000; stroke-width: 0.8"/>
      </g>
     </g>
     <g id="text_9">
      <!-- 10.0 -->
      <g transform="translate(636.867188 527.238438) scale(0.1 -0.1)">
       <use xlink:href="#DejaVuSans-31"/>
       <use xlink:href="#DejaVuSans-30" transform="translate(63.623047 0)"/>
       <use xlink:href="#DejaVuSans-2e" transform="translate(127.246094 0)"/>
       <use xlink:href="#DejaVuSans-30" transform="translate(159.033203 0)"/>
      </g>
     </g>
    </g>
    <g id="text_10">
     <!-- x-axis -->
     <g transform="translate(354.219531 540.916563) scale(0.1 -0.1)">
      <defs>
       <path id="DejaVuSans-78" d="M 3513 3500 
L 2247 1797 
L 3578 0 
L 2900 0 
L 1881 1375 
L 863 0 
L 184 0 
L 1544 1831 
L 300 3500 
L 978 3500 
L 1906 2253 
L 2834 3500 
L 3513 3500 
z
" transform="scale(0.015625)"/>
       <path id="DejaVuSans-2d" d="M 313 2009 
L 1997 2009 
L 1997 1497 
L 313 1497 
L 313 2009 
z
" transform="scale(0.015625)"/>
       <path id="DejaVuSans-61" d="M 2194 1759 
Q 1497 1759 1228 1600 
Q 959 1441 959 1056 
Q 959 750 1161 570 
Q 1363 391 1709 391 
Q 2188 391 2477 730 
Q 2766 1069 2766 1631 
L 2766 1759 
L 2194 1759 
z
M 3341 1997 
L 3341 0 
L 2766 0 
L 2766 531 
Q 2569 213 2275 61 
Q 1981 -91 1556 -91 
Q 1019 -91 701 211 
Q 384 513 384 1019 
Q 384 1609 779 1909 
Q 1175 2209 1959 2209 
L 2766 2209 
L 2766 2266 
Q 2766 2663 2505 2880 
Q 2244 3097 1772 3097 
Q 1472 3097 1187 3025 
Q 903 2953 641 2809 
L 641 3341 
Q 956 3463 1253 3523 
Q 1550 3584 1831 3584 
Q 2591 3584 2966 3190 
Q 3341 2797 3341 1997 
z
" transform="scale(0.015625)"/>
       <path id="DejaVuSans-69" d="M 603 3500 
L 1178 3500 
L 1178 0 
L 603 0 
L 603 3500 
z
M 603 4863 
L 1178 4863 
L 1178 4134 
L 603 4134 
L 603 4863 
z
" transform="scale(0.015625)"/>
       <path id="DejaVuSans-73" d="M 2834 3397 
L 2834 2853 
Q 2591 2978 2328 3040 
Q 2066 3103 1784 3103 
Q 1356 3103 1142 2972 
Q 928 2841 928 2578 
Q 928 2378 1081 2264 
Q 1234 2150 1697 2047 
L 1894 2003 
Q 2506 1872 2764 1633 
Q 3022 1394 3022 966 
Q 3022 478 2636 193 
Q 2250 -91 1575 -91 
Q 1294 -91 989 -36 
Q 684 19 347 128 
L 347 722 
Q 666 556 975 473 
Q 1284 391 1588 391 
Q 1994 391 2212 530 
Q 2431 669 2431 922 
Q 2431 1156 2273 1281 
Q 2116 1406 1581 1522 
L 1381 1569 
Q 847 1681 609 1914 
Q 372 2147 372 2553 
Q 372 3047 722 3315 
Q 1072 3584 1716 3584 
Q 2034 3584 2315 3537 
Q 2597 3491 2834 3397 
z
" transform="scale(0.015625)"/>
      </defs>
      <use xlink:href="#DejaVuSans-78"/>
      <use xlink:href="#DejaVuSans-2d" transform="translate(59.179688 0)"/>
      <use xlink:href="#DejaVuSans-61" transform="translate(95.263672 0)"/>
      <use xlink:href="#DejaVuSans-78" transform="translate(156.542969 0)"/>
      <use xlink:href="#DejaVuSans-69" transform="translate(215.722656 0)"/>
      <use xlink:href="#DejaVuSans-73" transform="translate(243.505859 0)"/>
     </g>
    </g>
   </g>
   <g id="matplotlib.axis_2">
    <g id="ytick_1">
     <g id="line2d_19">
      <path d="M 90 512.64 
L 648 512.64 
" clip-path="url(#pfcdcbafcaf)" style="fill: none; stroke: #b0b0b0; stroke-opacity: 0.5; stroke-width: 0.8; stroke-linecap: square"/>
     </g>
     <g id="line2d_20">
      <defs>
       <path id="mcb5d2dacca" d="M 0 0 
L -3.5 0 
" style="stroke: #000000; stroke-width: 0.8"/>
      </defs>
      <g>
       <use xlink:href="#mcb5d2dacca" x="90" y="512.64" style="stroke: #000000; stroke-width: 0.8"/>
      </g>
     </g>
     <g id="text_11">
      <!-- −10.0 -->
      <g transform="translate(52.354687 516.439219) scale(0.1 -0.1)">
       <use xlink:href="#DejaVuSans-2212"/>
       <use xlink:href="#DejaVuSans-31" transform="translate(83.789062 0)"/>
       <use xlink:href="#DejaVuSans-30" transform="translate(147.412109 0)"/>
       <use xlink:href="#DejaVuSans-2e" transform="translate(211.035156 0)"/>
       <use xlink:href="#DejaVuSans-30" transform="translate(242.822266 0)"/>
      </g>
     </g>
    </g>
    <g id="ytick_2">
     <g id="line2d_21">
      <path d="M 90 457.2 
L 648 457.2 
" clip-path="url(#pfcdcbafcaf)" style="fill: none; stroke: #b0b0b0; stroke-opacity: 0.5; stroke-width: 0.8; stroke-linecap: square"/>
     </g>
     <g id="line2d_22">
      <g>
       <use xlink:href="#mcb5d2dacca" x="90" y="457.2" style="stroke: #000000; stroke-width: 0.8"/>
      </g>
     </g>
     <g id="text_12">
      <!-- −7.5 -->
      <g transform="translate(58.717187 460.999219) scale(0.1 -0.1)">
       <use xlink:href="#DejaVuSans-2212"/>
       <use xlink:href="#DejaVuSans-37" transform="translate(83.789062 0)"/>
       <use xlink:href="#DejaVuSans-2e" transform="translate(147.412109 0)"/>
       <use xlink:href="#DejaVuSans-35" transform="translate(179.199219 0)"/>
      </g>
     </g>
    </g>
    <g id="ytick_3">
     <g id="line2d_23">
      <path d="M 90 401.76 
L 648 401.76 
" clip-path="url(#pfcdcbafcaf)" style="fill: none; stroke: #b0b0b0; stroke-opacity: 0.5; stroke-width: 0.8; stroke-linecap: square"/>
     </g>
     <g id="line2d_24">
      <g>
       <use xlink:href="#mcb5d2dacca" x="90" y="401.76" style="stroke: #000000; stroke-width: 0.8"/>
      </g>
     </g>
     <g id="text_13">
      <!-- −5.0 -->
      <g transform="translate(58.717187 405.559219) scale(0.1 -0.1)">
       <use xlink:href="#DejaVuSans-2212"/>
       <use xlink:href="#DejaVuSans-35" transform="translate(83.789062 0)"/>
       <use xlink:href="#DejaVuSans-2e" transform="translate(147.412109 0)"/>
       <use xlink:href="#DejaVuSans-30" transform="translate(179.199219 0)"/>
      </g>
     </g>
    </g>
    <g id="ytick_4">
     <g id="line2d_25">
      <path d="M 90 346.32 
L 648 346.32 
" clip-path="url(#pfcdcbafcaf)" style="fill: none; stroke: #b0b0b0; stroke-opacity: 0.5; stroke-width: 0.8; stroke-linecap: square"/>
     </g>
     <g id="line2d_26">
      <g>
       <use xlink:href="#mcb5d2dacca" x="90" y="346.32" style="stroke: #000000; stroke-width: 0.8"/>
      </g>
     </g>
     <g id="text_14">
      <!-- −2.5 -->
      <g transform="translate(58.717187 350.119219) scale(0.1 -0.1)">
       <use xlink:href="#DejaVuSans-2212"/>
       <use xlink:href="#DejaVuSans-32" transform="translate(83.789062 0)"/>
       <use xlink:href="#DejaVuSans-2e" transform="translate(147.412109 0)"/>
       <use xlink:href="#DejaVuSans-35" transform="translate(179.199219 0)"/>
      </g>
     </g>
    </g>
    <g id="ytick_5">
     <g id="line2d_27">
      <path d="M 90 290.88 
L 648 290.88 
" clip-path="url(#pfcdcbafcaf)" style="fill: none; stroke: #b0b0b0; stroke-opacity: 0.5; stroke-width: 0.8; stroke-linecap: square"/>
     </g>
     <g id="line2d_28">
      <g>
       <use xlink:href="#mcb5d2dacca" x="90" y="290.88" style="stroke: #000000; stroke-width: 0.8"/>
      </g>
     </g>
     <g id="text_15">
      <!-- 0.0 -->
      <g transform="translate(67.096875 294.679219) scale(0.1 -0.1)">
       <use xlink:href="#DejaVuSans-30"/>
       <use xlink:href="#DejaVuSans-2e" transform="translate(63.623047 0)"/>
       <use xlink:href="#DejaVuSans-30" transform="translate(95.410156 0)"/>
      </g>
     </g>
    </g>
    <g id="ytick_6">
     <g id="line2d_29">
      <path d="M 90 235.44 
L 648 235.44 
" clip-path="url(#pfcdcbafcaf)" style="fill: none; stroke: #b0b0b0; stroke-opacity: 0.5; stroke-width: 0.8; stroke-linecap: square"/>
     </g>
     <g id="line2d_30">
      <g>
       <use xlink:href="#mcb5d2dacca" x="90" y="235.44" style="stroke: #000000; stroke-width: 0.8"/>
      </g>
     </g>
     <g id="text_16">
      <!-- 2.5 -->
      <g transform="translate(67.096875 239.239219) scale(0.1 -0.1)">
       <use xlink:href="#DejaVuSans-32"/>
       <use xlink:href="#DejaVuSans-2e" transform="translate(63.623047 0)"/>
       <use xlink:href="#DejaVuSans-35" transform="translate(95.410156 0)"/>
      </g>
     </g>
    </g>
    <g id="ytick_7">
     <g id="line2d_31">
      <path d="M 90 180 
L 648 180 
" clip-path="url(#pfcdcbafcaf)" style="fill: none; stroke: #b0b0b0; stroke-opacity: 0.5; stroke-width: 0.8; stroke-linecap: square"/>
     </g>
     <g id="line2d_32">
      <g>
       <use xlink:href="#mcb5d2dacca" x="90" y="180" style="stroke: #000000; stroke-width: 0.8"/>
      </g>
     </g>
     <g id="text_17">
      <!-- 5.0 -->
      <g transform="translate(67.096875 183.799219) scale(0.1 -0.1)">
       <use xlink:href="#DejaVuSans-35"/>
       <use xlink:href="#DejaVuSans-2e" transform="translate(63.623047 0)"/>
       <use xlink:href="#DejaVuSans-30" transform="translate(95.410156 0)"/>
      </g>
     </g>
    </g>
    <g id="ytick_8">
     <g id="line2d_33">
      <path d="M 90 124.56 
L 648 124.56 
" clip-path="url(#pfcdcbafcaf)" style="fill: none; stroke: #b0b0b0; stroke-opacity: 0.5; stroke-width: 0.8; stroke-linecap: square"/>
     </g>
     <g id="line2d_34">
      <g>
       <use xlink:href="#mcb5d2dacca" x="90" y="124.56" style="stroke: #000000; stroke-width: 0.8"/>
      </g>
     </g>
     <g id="text_18">
      <!-- 7.5 -->
      <g transform="translate(67.096875 128.359219) scale(0.1 -0.1)">
       <use xlink:href="#DejaVuSans-37"/>
       <use xlink:href="#DejaVuSans-2e" transform="translate(63.623047 0)"/>
       <use xlink:href="#DejaVuSans-35" transform="translate(95.410156 0)"/>
      </g>
     </g>
    </g>
    <g id="ytick_9">
     <g id="line2d_35">
      <path d="M 90 69.12 
L 648 69.12 
" clip-path="url(#pfcdcbafcaf)" style="fill: none; stroke: #b0b0b0; stroke-opacity: 0.5; stroke-width: 0.8; stroke-linecap: square"/>
     </g>
     <g id="line2d_36">
      <g>
       <use xlink:href="#mcb5d2dacca" x="90" y="69.12" style="stroke: #000000; stroke-width: 0.8"/>
      </g>
     </g>
     <g id="text_19">
      <!-- 10.0 -->
      <g transform="translate(60.734375 72.919219) scale(0.1 -0.1)">
       <use xlink:href="#DejaVuSans-31"/>
       <use xlink:href="#DejaVuSans-30" transform="translate(63.623047 0)"/>
       <use xlink:href="#DejaVuSans-2e" transform="translate(127.246094 0)"/>
       <use xlink:href="#DejaVuSans-30" transform="translate(159.033203 0)"/>
      </g>
     </g>
    </g>
    <g id="text_20">
     <!-- y-axis -->
     <g transform="translate(46.275 305.572969) rotate(-90) scale(0.1 -0.1)">
      <defs>
       <path id="DejaVuSans-79" d="M 2059 -325 
Q 1816 -950 1584 -1140 
Q 1353 -1331 966 -1331 
L 506 -1331 
L 506 -850 
L 844 -850 
Q 1081 -850 1212 -737 
Q 1344 -625 1503 -206 
L 1606 56 
L 191 3500 
L 800 3500 
L 1894 763 
L 2988 3500 
L 3597 3500 
L 2059 -325 
z
" transform="scale(0.015625)"/>
      </defs>
      <use xlink:href="#DejaVuSans-79"/>
      <use xlink:href="#DejaVuSans-2d" transform="translate(57.429688 0)"/>
      <use xlink:href="#DejaVuSans-61" transform="translate(93.513672 0)"/>
      <use xlink:href="#DejaVuSans-78" transform="translate(154.792969 0)"/>
      <use xlink:href="#DejaVuSans-69" transform="translate(213.972656 0)"/>
      <use xlink:href="#DejaVuSans-73" transform="translate(241.755859 0)"/>
     </g>
    </g>
   </g>
   <g id="QuadContourSet_1">
    <path d="M 578.404103 512.64 
L 578.29001 512.325377 
M 568.021363 477.011072 
L 566.786976 470.4 
L 565.950241 464.842105 
L 565.313175 459.284211 
L 564.887357 453.726316 
L 564.690001 448.168421 
L 564.737066 442.610526 
L 565.046937 437.052632 
L 565.498182 432.606316 
L 566.139156 428.16 
L 566.986345 423.713684 
L 568.049614 419.267368 
L 569.344942 414.821053 
L 570.888767 410.374737 
L 572.698054 405.928421 
L 574.792759 401.482105 
L 577.196235 397.035789 
L 579.933737 392.589474 
L 582.270677 389.190797 
L 585.067669 385.497292 
L 587.864662 382.134562 
L 590.661654 379.044604 
L 593.731597 375.915789 
L 597.654135 372.257456 
L 601.849624 368.691881 
L 606.045113 365.428186 
L 610.240602 362.420967 
L 615.053373 359.242105 
L 620.566877 355.907368 
L 626.610705 352.572632 
L 632.616541 349.544491 
L 638.210526 346.94471 
L 645.203008 343.957471 
L 648 342.835668 
M 90 342.835668 
L 97.424553 345.903158 
L 103.984962 348.875719 
L 109.578947 351.632309 
L 115.48032 354.795789 
L 121.163841 358.130526 
L 126.360902 361.469148 
L 131.107539 364.8 
L 135.461226 368.134737 
L 139.45358 371.469474 
L 143.142857 374.830535 
L 146.476526 378.138947 
L 150.135338 382.134562 
L 152.932331 385.497292 
L 155.729323 389.190797 
L 158.066263 392.589474 
L 160.151329 395.924211 
L 162.635415 400.370526 
L 164.806354 404.816842 
L 166.684653 409.263158 
L 168.315789 413.781381 
L 169.714286 418.398066 
L 170.769257 422.602105 
L 171.668859 427.048421 
L 172.360174 431.494737 
L 172.857736 435.941053 
L 173.171644 440.387368 
L 173.321474 445.945263 
L 173.219845 451.503158 
L 172.883635 457.061053 
L 172.604735 460.103898 
M 165.12353 496.089276 
L 162.701461 503.747368 
L 159.924812 511.732981 
L 159.595897 512.64 
M 458.683406 69.12 
L 457.857811 69.591117 
M 424.480273 85.005265 
L 420.045113 86.526474 
L 413.052632 88.667565 
L 407.101016 90.24 
L 401.864662 91.439182 
L 396.270677 92.523338 
L 390.676692 93.406498 
L 385.082707 94.088215 
L 379.488722 94.566464 
L 373.894737 94.844061 
L 368.300752 94.920005 
L 362.706767 94.793399 
L 357.112782 94.465973 
L 351.518797 93.936705 
L 345.924812 93.205327 
L 340.330827 92.27174 
L 334.736842 91.137148 
L 329.142857 89.801596 
L 322.721024 88.016842 
L 317.954887 86.526474 
L 312.360902 84.58765 
L 306.766917 82.450094 
L 301.172932 80.1154 
L 295.578947 77.584254 
L 288.586466 74.145174 
L 281.286985 70.231579 
L 279.316594 69.12 
L 279.316594 69.12 
" clip-path="url(#pfcdcbafcaf)" style="fill: none; stroke-dasharray: 5.55,2.4; stroke-dashoffset: 0; stroke: #0000ff; stroke-width: 1.5"/>
    <path d="M 568.678479 512.64 
L 564.994701 503.747368 
L 561.998409 495.966316 
L 559.2372 488.185263 
L 556.735868 480.404211 
L 554.818678 473.734737 
L 553.132035 467.065263 
L 551.695715 460.395789 
L 550.532492 453.726316 
L 549.791026 448.168421 
L 549.27264 442.610526 
L 548.996164 437.052632 
L 548.979572 431.494737 
L 549.167365 427.048421 
L 549.547147 422.602105 
L 550.132768 418.155789 
L 550.934536 413.709474 
L 551.971521 409.263158 
L 553.259503 404.816842 
L 554.816957 400.370526 
L 556.665862 395.924211 
L 558.829986 391.477895 
L 560.675795 388.143158 
L 562.72873 384.808421 
L 565.488722 380.800791 
L 567.508462 378.138947 
L 570.272449 374.804211 
L 573.879699 370.883405 
L 576.676692 368.11378 
L 580.87218 364.328169 
L 584.352118 361.465263 
L 588.780343 358.130526 
L 593.652012 354.795789 
L 599.052632 351.441739 
L 604.94661 348.126316 
L 608.733309 346.161977 
M 643.064496 332.498603 
L 648 330.98797 
M 90 330.98797 
L 92.071033 331.611597 
M 126.577555 344.835188 
L 131.954887 347.544643 
L 137.548872 350.625149 
L 143.142857 354.019058 
L 147.647346 357.018947 
L 152.218165 360.353684 
L 156.37613 363.688421 
L 160.161023 367.023158 
L 164.120301 370.883405 
L 166.917293 373.886248 
L 169.714286 377.170529 
L 172.511278 380.800791 
L 174.540271 383.696842 
L 176.706767 387.105327 
L 178.576867 390.366316 
L 180.293347 393.701053 
L 182.300752 398.16078 
L 183.99654 402.593684 
L 185.416827 407.04 
L 186.576278 411.486316 
L 187.49499 415.932632 
L 188.186646 420.378947 
L 188.667578 424.825263 
L 188.949722 429.271579 
L 189.046244 433.717895 
L 188.923365 439.275789 
L 188.548116 444.833684 
L 187.894737 450.708397 
L 187.112041 455.949474 
L 186.083719 461.507368 
L 184.604079 468.176842 
L 182.877298 474.846316 
L 180.902256 481.580875 
L 178.7628 488.185263 
L 176.001591 495.966316 
L 173.005299 503.747368 
L 169.321521 512.64 
M 478.644593 69.12 
L 471.789474 74.048179 
L 464.26544 79.124211 
L 459.017367 82.458947 
L 453.467193 85.793684 
L 447.547783 89.128421 
L 442.421053 91.833392 
L 435.428571 95.23429 
L 429.103846 98.021053 
L 423.551947 100.244211 
L 418.646617 102.034725 
L 413.052632 103.868736 
L 407.458647 105.485204 
L 401.722631 106.913684 
L 396.270677 108.060812 
L 390.676692 109.021003 
L 385.082707 109.762502 
L 379.488722 110.282095 
L 373.894737 110.585021 
L 368.300752 110.667461 
L 362.706767 110.530019 
L 357.112782 110.172629 
L 351.518797 109.59793 
L 345.924812 108.802421 
L 340.330827 107.787561 
L 334.736842 106.554214 
L 329.142857 105.101772 
L 323.548872 103.430035 
L 317.444349 101.355789 
L 313.724343 99.969228 
M 280.662918 83.48902 
L 275.454225 80.235789 
L 270.375404 76.901053 
L 263.413534 72.071954 
L 259.355407 69.12 
L 259.355407 69.12 
" clip-path="url(#pfcdcbafcaf)" style="fill: none; stroke-dasharray: 5.55,2.4; stroke-dashoffset: 0; stroke: #0000ff; stroke-width: 1.5"/>
    <path d="M 558.455257 512.64 
L 554.119973 503.747368 
L 550.012305 494.854737 
L 546.626267 487.073684 
L 543.327728 478.949775 
M 532.551378 443.61118 
L 531.545054 438.164211 
L 530.743014 432.606316 
L 530.186273 427.048421 
L 529.897064 421.490526 
L 529.874602 417.044211 
L 530.05218 412.597895 
L 530.445174 408.151579 
L 531.066685 403.705263 
L 531.939122 399.258947 
L 533.077673 394.812632 
L 534.507666 390.366316 
L 536.120301 386.235745 
L 537.518797 383.142564 
L 538.924434 380.362105 
L 540.811061 377.027368 
L 543.112782 373.430631 
L 545.308695 370.357895 
L 547.959134 367.023158 
L 550.909525 363.688421 
L 554.300752 360.247431 
L 557.830707 357.018947 
L 561.875473 353.684211 
L 566.370699 350.349474 
L 571.082707 347.20029 
L 575.278195 344.644411 
L 580.87218 341.54466 
L 585.446871 339.233684 
L 590.661654 336.812585 
L 596.255639 334.433199 
L 603.24812 331.732977 
L 610.240602 329.294613 
L 617.233083 327.081754 
L 624.225564 325.064672 
L 632.616541 322.868308 
L 641.007519 320.884414 
L 648 319.372874 
M 90 319.372874 
L 99.789474 321.523813 
L 108.555653 323.671579 
L 116.729844 325.894737 
L 124.962406 328.38439 
L 131.954887 330.728559 
L 134.469517 331.629839 
M 167.698944 347.704195 
L 171.629301 350.349474 
L 176.124527 353.684211 
L 180.169293 357.018947 
L 183.81034 360.353684 
L 187.090475 363.688421 
L 190.040866 367.023158 
L 192.691305 370.357895 
L 195.066058 373.692632 
L 197.188939 377.027368 
L 199.082707 380.375698 
L 200.746751 383.696842 
L 202.214512 387.031579 
L 203.492334 390.366316 
L 204.922327 394.812632 
L 206.075188 399.324344 
L 206.933315 403.705263 
L 207.554826 408.151579 
L 207.94782 412.597895 
L 208.125398 417.044211 
L 208.102936 421.490526 
L 207.893786 425.936842 
L 207.388167 431.494737 
L 206.634404 437.052632 
L 205.649174 442.610526 
L 204.451672 448.168421 
L 203.059266 453.726316 
L 201.152585 460.395789 
L 199.008566 467.065263 
L 196.652616 473.734737 
L 193.488722 481.933049 
L 190.42737 489.296842 
L 186.475358 498.189474 
L 182.279066 507.082105 
L 179.544743 512.64 
M 495.493305 69.12 
L 487.972707 75.789474 
L 481.41702 81.347368 
L 474.538133 86.905263 
L 467.260425 92.463158 
L 461.085168 96.909474 
L 456.202397 100.244211 
L 450.81203 103.734656 
L 445.218045 107.137226 
L 439.62406 110.311671 
L 433.374354 113.583158 
L 428.43609 115.965394 
L 422.842105 118.437677 
L 417.24812 120.669056 
L 411.654135 122.657795 
L 406.06015 124.404522 
L 400.466165 125.905776 
L 394.87218 127.163883 
L 389.278195 128.17572 
L 383.684211 128.942982 
L 378.090226 129.464973 
L 372.496241 129.741437 
L 366.902256 129.772097 
L 361.308271 129.557233 
L 355.714286 129.095567 
L 350.120301 128.391286 
L 344.526316 127.440549 
L 338.932331 126.244313 
L 332.97849 124.698947 
L 327.744361 123.11803 
L 322.150376 121.188391 
L 316.556391 119.017089 
L 310.962406 116.606251 
L 304.625646 113.583158 
L 299.774436 111.070558 
L 294.180451 107.951754 
L 288.586466 104.605874 
L 282.992481 101.037533 
L 276 96.270267 
L 272.545269 93.789662 
M 243.915542 70.393405 
L 242.506695 69.12 
L 242.506695 69.12 
" clip-path="url(#pfcdcbafcaf)" style="fill: none; stroke-dasharray: 5.55,2.4; stroke-dashoffset: 0; stroke: #0000ff; stroke-width: 1.5"/>
    <path d="M 532.761111 485.695667 
L 528.368036 477.069474 
L 524.078211 468.176842 
L 520.067491 459.284211 
L 516.822374 451.503158 
L 513.744361 443.398309 
L 511.571698 437.052632 
L 509.548872 430.373318 
L 508.091453 424.825263 
L 506.857953 419.267368 
L 505.873084 413.709474 
L 505.284279 409.263158 
L 504.883425 404.816842 
L 504.690062 400.370526 
L 504.720774 395.924211 
L 504.995076 391.477895 
L 505.53423 387.031579 
L 506.125343 383.696842 
L 506.8923 380.362105 
L 507.843874 377.027368 
L 508.9958 373.692632 
L 510.364064 370.357895 
L 511.966208 367.023158 
L 513.822673 363.688421 
L 515.953655 360.353684 
L 518.389713 357.018947 
L 521.16074 353.684211 
L 524.303897 350.349474 
L 527.729323 347.135873 
L 530.526316 344.768488 
L 534.721805 341.570668 
L 538.123467 339.233684 
L 541.714286 336.977838 
L 545.909774 334.572381 
L 550.105263 332.37934 
L 555.699248 329.736137 
L 561.293233 327.364074 
L 566.887218 325.221915 
L 572.481203 323.276791 
L 579.473684 321.083082 
L 586.466165 319.115572 
L 594.882473 317.002105 
L 603.24812 315.135666 
L 613.037594 313.200782 
L 623.122746 311.444211 
L 634.015038 309.774111 
L 646.601504 308.088229 
L 648 307.915169 
M 90 307.915169 
L 102.586466 309.57468 
L 113.774436 311.265242 
L 123.56391 312.943801 
L 133.353383 314.843641 
L 141.744361 316.680962 
L 150.135338 318.746467 
L 157.12782 320.67264 
L 164.120301 322.818046 
L 171.112782 325.221915 
L 176.706767 327.364074 
L 182.300752 329.736137 
L 187.894737 332.37934 
L 192.483721 334.787368 
L 196.340385 337.010526 
L 200.481203 339.635732 
L 204.676692 342.594212 
L 208.87218 345.925847 
L 212.55797 349.237895 
L 215.833671 352.572632 
L 218.661654 355.831122 
L 220.457724 358.130526 
L 222.857143 361.572483 
L 224.826641 364.8 
L 226.595024 368.134737 
L 228.11664 371.469474 
L 229.411345 374.804211 
L 230.495585 378.138947 
L 231.383011 381.473684 
L 232.090685 384.808421 
L 232.769363 389.254737 
L 233.173875 393.701053 
L 233.323735 398.147368 
L 233.240167 402.593684 
L 232.941147 407.04 
L 232.444086 411.486316 
L 231.567606 417.044211 
L 230.431715 422.602105 
L 229.059885 428.16 
L 227.473931 433.717895 
L 225.315936 440.387368 
L 222.857143 447.186919 
L 220.06015 454.248344 
L 217.263158 460.809458 
L 213.921789 468.176842 
L 210.040158 476.242999 
M 195.083913 504.369735 
L 190.353837 512.64 
M 488.672845 91.561542 
L 482.977444 97.068075 
L 475.976722 103.578947 
L 468.438119 110.248421 
L 463.160251 114.694737 
L 457.631409 119.141053 
L 451.795922 123.587368 
L 446.616541 127.318087 
L 440.607246 131.368421 
L 435.296606 134.703158 
L 429.551606 138.037895 
L 424.240602 140.868881 
L 418.597325 143.595789 
L 413.052632 145.999398 
L 407.458647 148.138253 
L 401.864662 149.991029 
L 396.270677 151.553243 
L 390.676692 152.826571 
L 385.082707 153.808027 
L 379.488722 154.499169 
L 373.894737 154.899168 
L 368.300752 155.008802 
L 362.706767 154.825981 
L 357.112782 154.354246 
L 351.593066 153.6 
L 348.721805 153.099659 
L 343.12782 151.899672 
L 337.533835 150.408178 
L 331.93985 148.629781 
L 326.345865 146.56187 
L 320.75188 144.208492 
L 314.766145 141.372632 
L 309.56391 138.655993 
L 303.969925 135.465599 
L 298.37594 132.007481 
L 292.418618 128.033684 
L 287.18797 124.315343 
L 280.195489 119.007083 
L 273.203008 113.339372 
L 265.741682 106.913684 
L 259.218045 101.006634 
L 250.827068 93.030383 
L 242.43609 84.667972 
L 233.882686 75.789474 
L 227.653933 69.12 
L 227.653933 69.12 
" clip-path="url(#pfcdcbafcaf)" style="fill: none; stroke-dasharray: 5.55,2.4; stroke-dashoffset: 0; stroke: #0000ff; stroke-width: 1.5"/>
    <path d="M 536.14138 512.64 
L 516.541353 482.986218 
L 509.905904 472.623158 
L 504.483356 463.969395 
M 488.308903 436.628293 
L 483.701159 428.16 
L 479.698877 420.378947 
L 475.962922 412.597895 
L 473.008725 405.928421 
L 470.753854 400.370526 
L 468.71718 394.812632 
L 466.927943 389.254737 
L 465.700883 384.808421 
L 464.6789 380.362105 
L 463.881624 375.915789 
L 463.342766 371.469474 
L 463.121644 368.134737 
L 463.076903 364.8 
L 463.224668 361.465263 
L 463.581528 358.130526 
L 464.167554 354.795789 
L 465.010246 351.461053 
L 466.133968 348.126316 
L 467.052485 345.903158 
L 468.719303 342.568421 
L 470.390977 339.804743 
L 471.789474 337.78842 
L 473.25086 335.898947 
L 475.178539 333.675789 
L 477.383459 331.428054 
L 480.180451 328.918266 
L 482.977444 326.706472 
L 485.774436 324.731692 
L 489.969925 322.126397 
L 494.165414 319.858896 
L 498.360902 317.861405 
L 503.043984 315.890526 
L 508.150376 314.000111 
L 513.744361 312.179688 
L 520.251077 310.332632 
L 526.330827 308.82521 
L 533.323308 307.304046 
L 541.714286 305.726371 
L 550.105263 304.369439 
L 559.894737 303.011687 
L 571.082707 301.698815 
L 583.669173 300.462889 
L 597.654135 299.323702 
L 613.037594 298.291002 
L 631.218045 297.29788 
L 648 296.548468 
M 90 296.548468 
L 110.977444 297.508512 
L 129.157895 298.552983 
L 144.541353 299.643099 
L 158.526316 300.850125 
L 171.112782 302.164755 
L 182.300752 303.566829 
L 192.090226 305.023115 
L 200.481203 306.484756 
L 208.87218 308.191398 
L 215.864662 309.845488 
L 222.857143 311.760115 
L 228.883801 313.667368 
L 234.045113 315.536232 
L 238.240602 317.246852 
L 242.5608 319.225263 
L 246.836061 321.448421 
L 250.827068 323.820324 
L 253.91191 325.894737 
L 256.849379 328.117895 
L 259.453394 330.341053 
L 262.015038 332.82487 
L 263.815178 334.787368 
L 266.210526 337.78842 
L 267.961369 340.345263 
L 269.876883 343.68 
L 271.425409 347.014737 
L 272.649325 350.349474 
L 273.580928 353.684211 
L 274.250147 357.018947 
L 274.680066 360.353684 
L 274.896113 363.688421 
L 274.913606 367.023158 
L 274.749655 370.357895 
L 274.278117 374.804211 
L 273.543488 379.250526 
L 272.57518 383.696842 
L 271.396338 388.143158 
L 269.662366 393.701053 
L 267.609023 399.416515 
L 265.459389 404.816842 
L 262.548517 411.486316 
L 258.852141 419.267368 
L 254.883714 427.048421 
L 250.689323 434.829474 
L 245.665517 443.722105 
L 238.240602 456.256944 
L 237.174868 458.015773 
M 220.229219 484.887756 
L 204.101021 509.305263 
L 201.85862 512.64 
M 523.781926 69.12 
L 515.001946 80.235789 
L 502.484917 95.797895 
L 491.368421 109.265898 
L 481.065381 121.364211 
L 473.18797 130.315838 
L 464.796992 139.500596 
L 456.406015 148.256499 
L 449.413534 155.174789 
L 442.421053 161.696626 
L 436.418712 166.938947 
L 431.233083 171.190945 
L 425.114123 175.831579 
L 421.443609 178.42255 
L 415.849624 182.057934 
L 410.255639 185.310905 
L 404.881065 188.058947 
L 401.864662 189.444912 
L 397.061781 191.393684 
L 393.473684 192.65969 
L 389.278195 193.918266 
L 385.082707 194.940159 
L 380.887218 195.726139 
L 376.691729 196.278896 
L 372.496241 196.59341 
L 368.300752 196.671712 
L 364.105263 196.514978 
L 359.909774 196.120851 
L 355.714286 195.491701 
L 351.518797 194.6246 
L 347.323308 193.523588 
L 343.12782 192.18953 
L 338.932331 190.620327 
L 334.736842 188.819378 
L 330.541353 186.788123 
L 326.345865 184.532926 
L 321.085397 181.389474 
L 317.662982 179.166316 
L 312.885877 175.831579 
L 309.56391 173.365529 
L 303.969925 168.934239 
L 297.722617 163.604211 
L 292.781955 159.135974 
L 286.96519 153.6 
L 280.195489 146.828979 
L 272.87929 139.149474 
L 265.758926 131.368421 
L 257.819549 122.386765 
L 247.458412 110.248421 
L 238.330687 99.243892 
M 218.434312 74.4763 
L 214.218074 69.12 
L 214.218074 69.12 
" clip-path="url(#pfcdcbafcaf)" style="fill: none; stroke-dasharray: 5.55,2.4; stroke-dashoffset: 0; stroke: #0000ff; stroke-width: 1.5"/>
    <path d="M 509.850941 495.075923 
L 498.847036 481.515789 
L 491.368421 472.494102 
L 481.065381 460.395789 
L 473.18797 451.444162 
L 464.796992 442.259404 
L 456.406015 433.503501 
L 449.413534 426.585211 
L 442.421053 420.063374 
L 436.418712 414.821053 
L 431.233083 410.569055 
L 425.114123 405.928421 
L 421.443609 403.33745 
L 415.849624 399.702066 
L 410.255639 396.449095 
L 404.881065 393.701053 
L 401.864662 392.315088 
L 397.061781 390.366316 
L 393.473684 389.10031 
L 389.278195 387.841734 
L 385.082707 386.819841 
L 380.887218 386.033861 
L 376.691729 385.481104 
L 372.496241 385.16659 
L 368.300752 385.088288 
L 364.105263 385.245022 
L 359.909774 385.639149 
L 355.714286 386.268299 
L 351.518797 387.1354 
L 347.323308 388.236412 
L 343.12782 389.57047 
L 338.932331 391.139673 
L 334.736842 392.940622 
L 330.541353 394.971877 
L 326.345865 397.227074 
L 321.085397 400.370526 
L 317.662982 402.593684 
L 312.885877 405.928421 
L 309.56391 408.394471 
L 303.969925 412.825761 
L 297.722617 418.155789 
L 292.781955 422.624026 
L 286.96519 428.16 
L 280.195489 434.931021 
L 272.87929 442.610526 
L 265.758926 450.391579 
L 257.819549 459.373235 
L 247.458412 471.511579 
L 238.239251 482.627368 
L 225.654135 498.19102 
L 214.218074 512.64 
M 90 285.211532 
L 110.977444 284.251488 
L 129.157895 283.207017 
L 144.541353 282.116901 
L 158.526316 280.909875 
L 171.112782 279.595245 
L 182.300752 278.193171 
L 192.090226 276.736885 
L 200.481203 275.275244 
L 208.87218 273.568602 
L 215.864662 271.914512 
L 222.857143 269.999885 
L 228.883801 268.092632 
L 234.045113 266.223768 
L 238.240602 264.513148 
L 242.5608 262.534737 
L 246.836061 260.311579 
L 250.827068 257.939676 
L 253.91191 255.865263 
L 256.849379 253.642105 
L 259.453394 251.418947 
L 262.015038 248.93513 
L 263.815178 246.972632 
L 266.210526 243.97158 
L 267.961369 241.414737 
L 269.876883 238.08 
L 271.425409 234.745263 
L 272.649325 231.410526 
L 273.580928 228.075789 
L 274.250147 224.741053 
L 274.680066 221.406316 
L 274.896113 218.071579 
L 274.913606 214.736842 
L 274.749655 211.402105 
L 274.278117 206.955789 
L 273.543488 202.509474 
L 272.57518 198.063158 
L 271.396338 193.616842 
L 269.662366 188.058947 
L 267.609023 182.343485 
L 265.459389 176.943158 
L 262.548517 170.273684 
L 258.852141 162.492632 
L 254.883714 154.711579 
L 250.689323 146.930526 
L 245.665517 138.037895 
L 238.240602 125.503056 
L 235.076831 120.317111 
M 221.713951 99.165166 
L 211.669173 83.814774 
L 204.101021 72.454737 
L 201.85862 69.12 
M 523.615198 87.928448 
L 513.446171 103.578947 
L 505.024769 116.917895 
L 497.563641 129.145263 
L 491.057863 140.261053 
L 485.774436 149.741676 
L 482.533566 155.823158 
L 478.602806 163.604211 
L 475.451483 170.273684 
L 472.540611 176.943158 
L 469.91101 183.612632 
L 467.969704 189.170526 
L 466.292093 194.728421 
L 464.914418 200.286316 
L 464.057544 204.732632 
L 463.452457 209.178947 
L 463.121644 213.625263 
L 463.076903 216.96 
L 463.224668 220.294737 
L 463.581528 223.629474 
L 464.167554 226.964211 
L 465.010246 230.298947 
L 466.133968 233.633684 
L 467.052485 235.856842 
L 468.719303 239.191579 
L 470.390977 241.955257 
L 471.789474 243.97158 
L 473.25086 245.861053 
L 475.178539 248.084211 
L 477.383459 250.331946 
L 480.180451 252.841734 
L 482.977444 255.053528 
L 485.774436 257.028308 
L 489.969925 259.633603 
L 494.165414 261.901104 
L 498.360902 263.898595 
L 503.043984 265.869474 
L 508.150376 267.759889 
L 513.744361 269.580312 
L 520.251077 271.427368 
L 526.330827 272.93479 
L 533.323308 274.455954 
L 541.714286 276.033629 
L 550.105263 277.390561 
L 559.894737 278.748313 
L 571.082707 280.061185 
L 583.669173 281.297111 
L 597.654135 282.436298 
L 613.037594 283.468998 
L 631.218045 284.46212 
L 648 285.211532 
L 648 285.211532 
" clip-path="url(#pfcdcbafcaf)" style="fill: none; stroke: #0000ff; stroke-width: 1.5"/>
    <path d="M 510.346067 512.64 
L 502.556391 504.322743 
L 492.766917 494.263067 
L 484.306599 485.962105 
L 477.193528 479.292632 
L 470.390977 473.200221 
L 463.160251 467.065263 
L 457.631409 462.618947 
L 451.795922 458.172632 
L 446.616541 454.441913 
L 440.607246 450.391579 
L 435.296606 447.056842 
L 429.551606 443.722105 
L 424.240602 440.891119 
L 418.597325 438.164211 
L 413.052632 435.760602 
L 407.458647 433.621747 
L 401.864662 431.768971 
L 396.270677 430.206757 
L 390.676692 428.933429 
L 385.082707 427.951973 
L 379.488722 427.260831 
L 373.894737 426.860832 
L 368.300752 426.751198 
L 362.706767 426.934019 
L 357.112782 427.405754 
L 351.593066 428.16 
L 348.721805 428.660341 
L 343.12782 429.860328 
L 337.533835 431.351822 
L 331.93985 433.130219 
L 326.345865 435.19813 
L 320.75188 437.551508 
L 314.766145 440.387368 
L 309.56391 443.104007 
L 303.969925 446.294401 
L 298.37594 449.752519 
L 292.418618 453.726316 
L 287.18797 457.444657 
L 280.195489 462.752917 
L 273.203008 468.420628 
L 265.741682 474.846316 
L 259.218045 480.753366 
L 257.023253 482.803659 
M 239.163288 500.450415 
L 231.24812 508.7685 
L 227.653933 512.64 
M 90 273.844831 
L 102.586466 272.18532 
L 113.774436 270.494758 
L 123.56391 268.816199 
L 133.353383 266.916359 
L 141.744361 265.079038 
L 150.135338 263.013533 
L 157.12782 261.08736 
L 164.120301 258.941954 
L 171.112782 256.538085 
L 176.706767 254.395926 
L 182.300752 252.023863 
L 187.894737 249.38066 
L 192.483721 246.972632 
L 196.340385 244.749474 
L 200.481203 242.124268 
L 204.676692 239.165788 
L 208.87218 235.834153 
L 212.55797 232.522105 
L 215.833671 229.187368 
L 218.661654 225.928878 
L 220.457724 223.629474 
L 222.857143 220.187517 
L 224.826641 216.96 
L 226.595024 213.625263 
L 228.11664 210.290526 
L 229.411345 206.955789 
L 230.495585 203.621053 
L 231.383011 200.286316 
L 232.090685 196.951579 
L 232.769363 192.505263 
L 233.173875 188.058947 
L 233.323735 183.612632 
L 233.240167 179.166316 
L 232.941147 174.72 
L 232.444086 170.273684 
L 231.567606 164.715789 
L 230.431715 159.157895 
L 229.059885 153.6 
L 227.473931 148.042105 
L 225.315936 141.372632 
L 222.857143 134.573081 
L 220.06015 127.511656 
L 217.263158 120.950542 
L 213.921789 113.583158 
L 209.631964 104.690526 
L 204.517805 94.686316 
L 203.894245 93.500318 
M 191.743701 71.52748 
L 190.353837 69.12 
M 547.646163 69.12 
L 540.081593 82.458947 
L 534.655643 92.463158 
L 530.041002 101.355789 
L 528.471253 104.483681 
M 518.022113 127.310628 
L 515.092677 134.703158 
L 512.684064 141.372632 
L 510.526069 148.042105 
L 508.940115 153.6 
L 507.568285 159.157895 
L 506.432394 164.715789 
L 505.555914 170.273684 
L 505.058853 174.72 
L 504.759833 179.166316 
L 504.676265 183.612632 
L 504.826125 188.058947 
L 505.230637 192.505263 
L 505.909315 196.951579 
L 506.75188 200.831551 
L 507.504415 203.621053 
L 508.588655 206.955789 
L 509.88336 210.290526 
L 511.404976 213.625263 
L 513.173359 216.96 
L 515.21189 220.294737 
L 517.542276 223.629474 
L 520.197514 226.964211 
L 523.212582 230.298947 
L 526.330827 233.356884 
L 529.154423 235.856842 
L 533.357598 239.191579 
L 537.518797 242.124268 
L 541.714286 244.782162 
L 545.909774 247.187619 
L 550.105263 249.38066 
L 555.699248 252.023863 
L 561.293233 254.395926 
L 566.887218 256.538085 
L 572.481203 258.483209 
L 579.473684 260.676918 
L 586.466165 262.644428 
L 594.882473 264.757895 
L 603.24812 266.624334 
L 613.037594 268.559218 
L 623.122746 270.315789 
L 634.015038 271.985889 
L 646.601504 273.671771 
L 648 273.844831 
L 648 273.844831 
" clip-path="url(#pfcdcbafcaf)" style="fill: none; stroke: #0000ff; stroke-width: 1.5"/>
    <path d="M 472.63161 493.367034 
L 466.195489 488.509139 
L 459.203008 483.543307 
L 452.210526 478.910032 
L 445.218045 474.622774 
L 439.62406 471.448329 
L 433.374354 468.176842 
L 428.43609 465.794606 
L 422.842105 463.322323 
L 417.24812 461.090944 
L 411.654135 459.102205 
L 406.06015 457.355478 
L 400.466165 455.854224 
L 394.87218 454.596117 
L 389.278195 453.58428 
L 383.684211 452.817018 
L 378.090226 452.295027 
L 372.496241 452.018563 
L 366.902256 451.987903 
L 361.308271 452.202767 
L 355.714286 452.664433 
L 350.120301 453.368714 
L 344.526316 454.319451 
L 338.932331 455.515687 
L 332.97849 457.061053 
L 327.744361 458.64197 
L 322.150376 460.571609 
L 316.556391 462.742911 
L 310.962406 465.153749 
L 304.625646 468.176842 
L 299.774436 470.689442 
L 294.180451 473.808246 
L 288.586466 477.154126 
L 282.992481 480.722467 
L 276 485.489733 
L 269.007519 490.586786 
L 262.015038 495.999204 
L 255.022556 501.711008 
L 247.481986 508.193684 
L 242.506695 512.64 
M 90 262.387126 
L 93.4645 261.652732 
M 122.730096 254.076744 
L 129.157895 251.996569 
L 136.150376 249.509253 
L 142.610786 246.972632 
L 148.736842 244.318209 
L 154.800352 241.414737 
L 159.924812 238.705749 
L 164.834115 235.856842 
L 169.714286 232.728546 
L 173.181143 230.298947 
L 177.520289 226.964211 
L 181.42584 223.629474 
L 185.097744 220.137544 
L 188.108328 216.96 
L 190.955844 213.625263 
L 193.511281 210.290526 
L 195.801266 206.955789 
L 197.842677 203.621053 
L 199.657115 200.286316 
L 201.258332 196.951579 
L 202.661371 193.616842 
L 204.245598 189.170526 
L 205.52743 184.724211 
L 206.529916 180.277895 
L 207.273831 175.831579 
L 207.779301 171.385263 
L 208.062524 166.938947 
L 208.138295 162.492632 
L 208.020933 158.046316 
L 207.621472 152.488421 
L 206.964999 146.930526 
L 206.068377 141.372632 
L 204.954975 135.814737 
L 203.352138 129.145263 
L 201.487172 122.475789 
L 199.381799 115.806316 
L 196.652616 108.025263 
L 193.488722 99.826951 
L 190.42737 92.463158 
L 186.475358 83.570526 
L 182.279066 74.677895 
L 179.544743 69.12 
M 558.455257 69.12 
L 554.119973 78.012632 
L 550.012305 86.905263 
L 546.626267 94.686316 
L 543.46068 102.467368 
L 540.315789 110.881235 
L 538.251209 116.917895 
L 536.120301 123.815182 
L 534.36099 130.256842 
L 533.045025 135.814737 
L 531.924812 141.4115 
L 531.035001 146.930526 
L 530.378528 152.488421 
L 529.979067 158.046316 
L 529.861705 162.492632 
L 529.937476 166.938947 
L 530.220699 171.385263 
L 530.726169 175.831579 
L 531.470084 180.277895 
L 532.47257 184.724211 
L 533.754402 189.170526 
L 534.913486 192.505263 
L 536.253571 195.84 
L 537.786795 199.174737 
L 539.527393 202.509474 
L 541.714286 206.19495 
L 543.695885 209.178947 
L 546.161011 212.513684 
L 548.908608 215.848421 
L 551.964625 219.183158 
L 555.699248 222.829863 
L 559.132029 225.852632 
L 563.32118 229.187368 
L 566.887218 231.770364 
L 571.374084 234.745263 
L 576.676692 237.921449 
L 581.038613 240.303158 
L 586.466165 243.015551 
L 592.749466 245.861053 
L 593.328372 246.107879 
M 621.871195 256.0357 
L 629.819549 258.184844 
L 638.534641 260.311579 
L 648 262.387126 
L 648 262.387126 
" clip-path="url(#pfcdcbafcaf)" style="fill: none; stroke: #0000ff; stroke-width: 1.5"/>
    <path d="M 478.644593 512.64 
L 471.789474 507.711821 
L 464.26544 502.635789 
L 459.017367 499.301053 
L 453.467193 495.966316 
L 447.547783 492.631579 
L 442.421053 489.926608 
L 435.428571 486.52571 
L 429.103846 483.738947 
L 423.551947 481.515789 
L 418.646617 479.725275 
L 413.052632 477.891264 
L 407.458647 476.274796 
L 401.722631 474.846316 
L 396.270677 473.699188 
L 390.676692 472.738997 
L 385.082707 471.997498 
L 379.488722 471.477905 
L 373.894737 471.174979 
L 368.300752 471.092539 
L 362.706767 471.229981 
L 357.112782 471.587371 
L 351.518797 472.16207 
L 345.924812 472.957579 
L 340.330827 473.972439 
L 334.736842 475.205786 
L 329.142857 476.658228 
L 323.548872 478.329965 
L 317.444349 480.404211 
L 312.360902 482.323589 
L 306.301079 484.850526 
L 301.172932 487.180558 
L 294.645968 490.408421 
L 290.2335 492.749645 
M 264.636683 508.818974 
L 259.355407 512.64 
M 90 250.77203 
L 98.588582 248.084211 
L 105.383459 245.74639 
L 112.37594 243.116654 
L 119.368421 240.225767 
L 121.205193 239.417087 
M 147.608994 224.767537 
L 151.533835 221.92454 
L 155.729323 218.609481 
L 158.938728 215.848421 
L 162.721805 212.288256 
L 165.732273 209.178947 
L 168.678224 205.844211 
L 171.35467 202.509474 
L 173.909774 198.988532 
L 175.98006 195.84 
L 178.105263 192.245628 
L 179.741776 189.170526 
L 181.824951 184.724211 
L 183.598008 180.277895 
L 185.097744 175.792215 
L 186.309956 171.385263 
L 187.287532 166.938947 
L 188.033637 162.492632 
L 188.566534 158.046316 
L 188.897073 153.6 
L 189.038858 149.153684 
L 188.968717 143.595789 
L 188.642507 138.037895 
L 188.077672 132.48 
L 187.293948 126.922105 
L 186.304285 121.364211 
L 184.867965 114.694737 
L 183.181322 108.025263 
L 181.264132 101.355789 
L 178.7628 93.574737 
L 176.001591 85.793684 
L 173.005299 78.012632 
L 169.321521 69.12 
M 558.198505 96.706564 
L 556.400939 102.467368 
L 554.521514 109.136842 
L 552.875256 115.806316 
L 551.503759 122.367875 
L 550.706052 126.922105 
L 549.922328 132.48 
L 549.357493 138.037895 
L 549.031283 143.595789 
L 548.961142 149.153684 
L 549.102927 153.6 
L 549.433466 158.046316 
L 549.966363 162.492632 
L 550.712468 166.938947 
L 551.690044 171.385263 
L 552.913994 175.831579 
L 554.401992 180.277895 
L 556.175049 184.724211 
L 558.258224 189.170526 
L 560.039024 192.505263 
L 562.01994 195.84 
L 564.217715 199.174737 
L 566.887218 202.822243 
L 569.684211 206.269613 
L 572.481203 209.407258 
L 575.50537 212.513684 
L 579.473684 216.213925 
L 582.966619 219.183158 
L 587.257345 222.517895 
L 592.06015 225.908833 
L 597.170991 229.187368 
L 601.849624 231.932216 
L 607.443609 234.942469 
L 613.857064 238.08 
L 620.030075 240.826567 
L 627.022556 243.662605 
L 634.015038 246.243904 
L 641.007519 248.604708 
L 648 250.77203 
L 648 250.77203 
" clip-path="url(#pfcdcbafcaf)" style="fill: none; stroke: #0000ff; stroke-width: 1.5"/>
    <path d="M 432.441036 499.79686 
L 425.639098 497.17235 
L 418.646617 494.781309 
L 413.052632 493.092435 
L 407.101016 491.52 
L 401.864662 490.320818 
L 396.270677 489.236662 
L 390.676692 488.353502 
L 385.082707 487.671785 
L 379.488722 487.193536 
L 373.894737 486.915939 
L 368.300752 486.839995 
L 362.706767 486.966601 
L 357.112782 487.294027 
L 351.518797 487.823295 
L 345.924812 488.554673 
L 340.330827 489.48826 
L 334.736842 490.622852 
L 329.142857 491.958404 
L 322.721024 493.743158 
L 317.954887 495.233526 
L 312.360902 497.17235 
L 306.766917 499.309906 
L 301.172932 501.6446 
L 295.578947 504.175746 
L 288.586466 507.614826 
L 281.286985 511.528421 
L 279.316594 512.64 
M 90 238.924332 
L 97.424553 235.856842 
L 103.984962 232.884281 
L 109.578947 230.127691 
L 115.48032 226.964211 
L 121.163841 223.629474 
L 126.360902 220.290852 
L 131.107539 216.96 
L 135.461226 213.625263 
L 139.45358 210.290526 
L 143.142857 206.929465 
L 146.476526 203.621053 
L 150.135338 199.625438 
L 152.932331 196.262708 
L 155.729323 192.569203 
L 158.066263 189.170526 
L 160.151329 185.835789 
L 162.635415 181.389474 
L 164.806354 176.943158 
L 166.684653 172.496842 
L 168.315789 167.978619 
L 169.714286 163.361934 
L 170.769257 159.157895 
L 171.668859 154.711579 
L 172.360174 150.265263 
L 172.857736 145.818947 
L 173.171644 141.372632 
L 173.321474 135.814737 
L 173.219845 130.256842 
L 172.883635 124.698947 
L 172.32884 119.141053 
L 171.571116 113.583158 
L 170.411157 106.913684 
L 169.293387 101.551093 
M 160.885639 72.709509 
L 159.595897 69.12 
M 578.404103 69.12 
L 575.669234 76.901053 
L 573.174527 84.682105 
L 570.94434 92.463158 
L 569.260586 99.132632 
L 567.807444 105.802105 
L 566.604087 112.471579 
L 565.806639 118.029474 
L 565.210429 123.587368 
L 564.829129 129.145263 
L 564.679309 134.703158 
L 564.777379 140.261053 
L 565.142264 145.818947 
L 565.639826 150.265263 
L 566.331141 154.711579 
L 567.230743 159.157895 
L 568.351626 163.604211 
L 569.707723 168.050526 
L 571.315347 172.496842 
L 573.193646 176.943158 
L 575.364585 181.389474 
L 577.848671 185.835789 
L 579.933737 189.170526 
L 582.270677 192.569203 
L 585.067669 196.262708 
L 587.864662 199.625438 
L 590.661654 202.715396 
L 593.731597 205.844211 
L 597.654135 209.502544 
L 601.849624 213.068119 
L 606.045113 216.331814 
L 610.240602 219.339033 
L 615.673525 222.906895 
M 642.382593 236.630079 
L 648 238.924332 
L 648 238.924332 
" clip-path="url(#pfcdcbafcaf)" style="fill: none; stroke: #0000ff; stroke-width: 1.5"/>
   </g>
   <g id="line2d_37">
    <path d="M 90 290.88 
L 648 290.88 
" clip-path="url(#pfcdcbafcaf)" style="fill: none; stroke: #000000; stroke-linecap: square"/>
   </g>
   <g id="line2d_38">
    <path d="M 369 512.64 
L 369 69.12 
" clip-path="url(#pfcdcbafcaf)" style="fill: none; stroke: #000000; stroke-linecap: square"/>
   </g>
   <g id="patch_3">
    <path d="M 90 512.64 
L 90 69.12 
" style="fill: none; stroke: #000000; stroke-width: 0.8; stroke-linejoin: miter; stroke-linecap: square"/>
   </g>
   <g id="patch_4">
    <path d="M 648 512.64 
L 648 69.12 
" style="fill: none; stroke: #000000; stroke-width: 0.8; stroke-linejoin: miter; stroke-linecap: square"/>
   </g>
   <g id="patch_5">
    <path d="M 90 512.64 
L 648 512.64 
" style="fill: none; stroke: #000000; stroke-width: 0.8; stroke-linejoin: miter; stroke-linecap: square"/>
   </g>
   <g id="patch_6">
    <path d="M 90 69.12 
L 648 69.12 
" style="fill: none; stroke: #000000; stroke-width: 0.8; stroke-linejoin: miter; stroke-linecap: square"/>
   </g>
   <g id="text_21">
    <g clip-path="url(#pfcdcbafcaf)">
     <!-- −230.0 -->
     <g style="fill: #0000ff" transform="translate(566.241339 481.264066) rotate(-286.280588) scale(0.08 -0.08)">
      <defs>
       <path id="DejaVuSans-33" d="M 2597 2516 
Q 3050 2419 3304 2112 
Q 3559 1806 3559 1356 
Q 3559 666 3084 287 
Q 2609 -91 1734 -91 
Q 1441 -91 1130 -33 
Q 819 25 488 141 
L 488 750 
Q 750 597 1062 519 
Q 1375 441 1716 441 
Q 2309 441 2620 675 
Q 2931 909 2931 1356 
Q 2931 1769 2642 2001 
Q 2353 2234 1838 2234 
L 1294 2234 
L 1294 2753 
L 1863 2753 
Q 2328 2753 2575 2939 
Q 2822 3125 2822 3475 
Q 2822 3834 2567 4026 
Q 2313 4219 1838 4219 
Q 1578 4219 1281 4162 
Q 984 4106 628 3988 
L 628 4550 
Q 988 4650 1302 4700 
Q 1616 4750 1894 4750 
Q 2613 4750 3031 4423 
Q 3450 4097 3450 3541 
Q 3450 3153 3228 2886 
Q 3006 2619 2597 2516 
z
" transform="scale(0.015625)"/>
      </defs>
      <use xlink:href="#DejaVuSans-2212"/>
      <use xlink:href="#DejaVuSans-32" transform="translate(83.789062 0)"/>
      <use xlink:href="#DejaVuSans-33" transform="translate(147.412109 0)"/>
      <use xlink:href="#DejaVuSans-30" transform="translate(211.035156 0)"/>
      <use xlink:href="#DejaVuSans-2e" transform="translate(274.658203 0)"/>
      <use xlink:href="#DejaVuSans-30" transform="translate(306.445312 0)"/>
     </g>
    </g>
   </g>
   <g id="text_22">
    <g clip-path="url(#pfcdcbafcaf)">
     <!-- −230.0 -->
     <g style="fill: #0000ff" transform="translate(168.839385 493.212578) rotate(-78.167136) scale(0.08 -0.08)">
      <use xlink:href="#DejaVuSans-2212"/>
      <use xlink:href="#DejaVuSans-32" transform="translate(83.789062 0)"/>
      <use xlink:href="#DejaVuSans-33" transform="translate(147.412109 0)"/>
      <use xlink:href="#DejaVuSans-30" transform="translate(211.035156 0)"/>
      <use xlink:href="#DejaVuSans-2e" transform="translate(274.658203 0)"/>
      <use xlink:href="#DejaVuSans-30" transform="translate(306.445312 0)"/>
     </g>
    </g>
   </g>
   <g id="text_23">
    <g clip-path="url(#pfcdcbafcaf)">
     <!-- −230.0 -->
     <g style="fill: #0000ff" transform="translate(428.990553 86.232601) rotate(-24.831369) scale(0.08 -0.08)">
      <use xlink:href="#DejaVuSans-2212"/>
      <use xlink:href="#DejaVuSans-32" transform="translate(83.789062 0)"/>
      <use xlink:href="#DejaVuSans-33" transform="translate(147.412109 0)"/>
      <use xlink:href="#DejaVuSans-30" transform="translate(211.035156 0)"/>
      <use xlink:href="#DejaVuSans-2e" transform="translate(274.658203 0)"/>
      <use xlink:href="#DejaVuSans-30" transform="translate(306.445312 0)"/>
     </g>
    </g>
   </g>
   <g id="text_24">
    <g clip-path="url(#pfcdcbafcaf)">
     <!-- −178.9 -->
     <g style="fill: #0000ff" transform="translate(612.677176 346.152257) rotate(-21.631131) scale(0.08 -0.08)">
      <defs>
       <path id="DejaVuSans-38" d="M 2034 2216 
Q 1584 2216 1326 1975 
Q 1069 1734 1069 1313 
Q 1069 891 1326 650 
Q 1584 409 2034 409 
Q 2484 409 2743 651 
Q 3003 894 3003 1313 
Q 3003 1734 2745 1975 
Q 2488 2216 2034 2216 
z
M 1403 2484 
Q 997 2584 770 2862 
Q 544 3141 544 3541 
Q 544 4100 942 4425 
Q 1341 4750 2034 4750 
Q 2731 4750 3128 4425 
Q 3525 4100 3525 3541 
Q 3525 3141 3298 2862 
Q 3072 2584 2669 2484 
Q 3125 2378 3379 2068 
Q 3634 1759 3634 1313 
Q 3634 634 3220 271 
Q 2806 -91 2034 -91 
Q 1263 -91 848 271 
Q 434 634 434 1313 
Q 434 1759 690 2068 
Q 947 2378 1403 2484 
z
M 1172 3481 
Q 1172 3119 1398 2916 
Q 1625 2713 2034 2713 
Q 2441 2713 2670 2916 
Q 2900 3119 2900 3481 
Q 2900 3844 2670 4047 
Q 2441 4250 2034 4250 
Q 1625 4250 1398 4047 
Q 1172 3844 1172 3481 
z
" transform="scale(0.015625)"/>
       <path id="DejaVuSans-39" d="M 703 97 
L 703 672 
Q 941 559 1184 500 
Q 1428 441 1663 441 
Q 2288 441 2617 861 
Q 2947 1281 2994 2138 
Q 2813 1869 2534 1725 
Q 2256 1581 1919 1581 
Q 1219 1581 811 2004 
Q 403 2428 403 3163 
Q 403 3881 828 4315 
Q 1253 4750 1959 4750 
Q 2769 4750 3195 4129 
Q 3622 3509 3622 2328 
Q 3622 1225 3098 567 
Q 2575 -91 1691 -91 
Q 1453 -91 1209 -44 
Q 966 3 703 97 
z
M 1959 2075 
Q 2384 2075 2632 2365 
Q 2881 2656 2881 3163 
Q 2881 3666 2632 3958 
Q 2384 4250 1959 4250 
Q 1534 4250 1286 3958 
Q 1038 3666 1038 3163 
Q 1038 2656 1286 2365 
Q 1534 2075 1959 2075 
z
" transform="scale(0.015625)"/>
      </defs>
      <use xlink:href="#DejaVuSans-2212"/>
      <use xlink:href="#DejaVuSans-31" transform="translate(83.789062 0)"/>
      <use xlink:href="#DejaVuSans-37" transform="translate(147.412109 0)"/>
      <use xlink:href="#DejaVuSans-38" transform="translate(211.035156 0)"/>
      <use xlink:href="#DejaVuSans-2e" transform="translate(274.658203 0)"/>
      <use xlink:href="#DejaVuSans-39" transform="translate(306.445312 0)"/>
     </g>
    </g>
   </g>
   <g id="text_25">
    <g clip-path="url(#pfcdcbafcaf)">
     <!-- −178.9 -->
     <g style="fill: #0000ff" transform="translate(94.962408 334.343191) rotate(-339.098126) scale(0.08 -0.08)">
      <use xlink:href="#DejaVuSans-2212"/>
      <use xlink:href="#DejaVuSans-31" transform="translate(83.789062 0)"/>
      <use xlink:href="#DejaVuSans-37" transform="translate(147.412109 0)"/>
      <use xlink:href="#DejaVuSans-38" transform="translate(211.035156 0)"/>
      <use xlink:href="#DejaVuSans-2e" transform="translate(274.658203 0)"/>
      <use xlink:href="#DejaVuSans-39" transform="translate(306.445312 0)"/>
     </g>
    </g>
   </g>
   <g id="text_26">
    <g clip-path="url(#pfcdcbafcaf)">
     <!-- −178.9 -->
     <g style="fill: #0000ff" transform="translate(282.59947 87.823037) rotate(-333.45746) scale(0.08 -0.08)">
      <use xlink:href="#DejaVuSans-2212"/>
      <use xlink:href="#DejaVuSans-31" transform="translate(83.789062 0)"/>
      <use xlink:href="#DejaVuSans-37" transform="translate(147.412109 0)"/>
      <use xlink:href="#DejaVuSans-38" transform="translate(211.035156 0)"/>
      <use xlink:href="#DejaVuSans-2e" transform="translate(274.658203 0)"/>
      <use xlink:href="#DejaVuSans-39" transform="translate(306.445312 0)"/>
     </g>
    </g>
   </g>
   <g id="text_27">
    <g clip-path="url(#pfcdcbafcaf)">
     <!-- −127.8 -->
     <g style="fill: #0000ff" transform="translate(530.738251 448.002164) rotate(-287.05053) scale(0.08 -0.08)">
      <use xlink:href="#DejaVuSans-2212"/>
      <use xlink:href="#DejaVuSans-31" transform="translate(83.789062 0)"/>
      <use xlink:href="#DejaVuSans-32" transform="translate(147.412109 0)"/>
      <use xlink:href="#DejaVuSans-37" transform="translate(211.035156 0)"/>
      <use xlink:href="#DejaVuSans-2e" transform="translate(274.658203 0)"/>
      <use xlink:href="#DejaVuSans-38" transform="translate(306.445312 0)"/>
     </g>
    </g>
   </g>
   <g id="text_28">
    <g clip-path="url(#pfcdcbafcaf)">
     <!-- −127.8 -->
     <g style="fill: #0000ff" transform="translate(137.237484 334.315009) rotate(-334.303779) scale(0.08 -0.08)">
      <use xlink:href="#DejaVuSans-2212"/>
      <use xlink:href="#DejaVuSans-31" transform="translate(83.789062 0)"/>
      <use xlink:href="#DejaVuSans-32" transform="translate(147.412109 0)"/>
      <use xlink:href="#DejaVuSans-37" transform="translate(211.035156 0)"/>
      <use xlink:href="#DejaVuSans-2e" transform="translate(274.658203 0)"/>
      <use xlink:href="#DejaVuSans-38" transform="translate(306.445312 0)"/>
     </g>
    </g>
   </g>
   <g id="text_29">
    <g clip-path="url(#pfcdcbafcaf)">
     <!-- −127.8 -->
     <g style="fill: #0000ff" transform="translate(245.076497 74.792571) rotate(-320.706183) scale(0.08 -0.08)">
      <use xlink:href="#DejaVuSans-2212"/>
      <use xlink:href="#DejaVuSans-31" transform="translate(83.789062 0)"/>
      <use xlink:href="#DejaVuSans-32" transform="translate(147.412109 0)"/>
      <use xlink:href="#DejaVuSans-37" transform="translate(211.035156 0)"/>
      <use xlink:href="#DejaVuSans-2e" transform="translate(274.658203 0)"/>
      <use xlink:href="#DejaVuSans-38" transform="translate(306.445312 0)"/>
     </g>
    </g>
   </g>
   <g id="text_30">
    <g clip-path="url(#pfcdcbafcaf)">
     <!-- −76.7 -->
     <g style="fill: #0000ff" transform="translate(532.445664 490.065996) rotate(-298.979497) scale(0.08 -0.08)">
      <defs>
       <path id="DejaVuSans-36" d="M 2113 2584 
Q 1688 2584 1439 2293 
Q 1191 2003 1191 1497 
Q 1191 994 1439 701 
Q 1688 409 2113 409 
Q 2538 409 2786 701 
Q 3034 994 3034 1497 
Q 3034 2003 2786 2293 
Q 2538 2584 2113 2584 
z
M 3366 4563 
L 3366 3988 
Q 3128 4100 2886 4159 
Q 2644 4219 2406 4219 
Q 1781 4219 1451 3797 
Q 1122 3375 1075 2522 
Q 1259 2794 1537 2939 
Q 1816 3084 2150 3084 
Q 2853 3084 3261 2657 
Q 3669 2231 3669 1497 
Q 3669 778 3244 343 
Q 2819 -91 2113 -91 
Q 1303 -91 875 529 
Q 447 1150 447 2328 
Q 447 3434 972 4092 
Q 1497 4750 2381 4750 
Q 2619 4750 2861 4703 
Q 3103 4656 3366 4563 
z
" transform="scale(0.015625)"/>
      </defs>
      <use xlink:href="#DejaVuSans-2212"/>
      <use xlink:href="#DejaVuSans-37" transform="translate(83.789062 0)"/>
      <use xlink:href="#DejaVuSans-36" transform="translate(147.412109 0)"/>
      <use xlink:href="#DejaVuSans-2e" transform="translate(211.035156 0)"/>
      <use xlink:href="#DejaVuSans-37" transform="translate(242.822266 0)"/>
     </g>
    </g>
   </g>
   <g id="text_31">
    <g clip-path="url(#pfcdcbafcaf)">
     <!-- −76.7 -->
     <g style="fill: #0000ff" transform="translate(198.942575 502.266159) rotate(-61.971381) scale(0.08 -0.08)">
      <use xlink:href="#DejaVuSans-2212"/>
      <use xlink:href="#DejaVuSans-37" transform="translate(83.789062 0)"/>
      <use xlink:href="#DejaVuSans-36" transform="translate(147.412109 0)"/>
      <use xlink:href="#DejaVuSans-2e" transform="translate(211.035156 0)"/>
      <use xlink:href="#DejaVuSans-37" transform="translate(242.822266 0)"/>
     </g>
    </g>
   </g>
   <g id="text_32">
    <g clip-path="url(#pfcdcbafcaf)">
     <!-- −76.7 -->
     <g style="fill: #0000ff" transform="translate(492.955166 90.592377) rotate(-46.044455) scale(0.08 -0.08)">
      <use xlink:href="#DejaVuSans-2212"/>
      <use xlink:href="#DejaVuSans-37" transform="translate(83.789062 0)"/>
      <use xlink:href="#DejaVuSans-36" transform="translate(147.412109 0)"/>
      <use xlink:href="#DejaVuSans-2e" transform="translate(211.035156 0)"/>
      <use xlink:href="#DejaVuSans-37" transform="translate(242.822266 0)"/>
     </g>
    </g>
   </g>
   <g id="text_33">
    <g clip-path="url(#pfcdcbafcaf)">
     <!-- −25.6 -->
     <g style="fill: #0000ff" transform="translate(488.092767 440.96973) rotate(-300.638877) scale(0.08 -0.08)">
      <use xlink:href="#DejaVuSans-2212"/>
      <use xlink:href="#DejaVuSans-32" transform="translate(83.789062 0)"/>
      <use xlink:href="#DejaVuSans-35" transform="translate(147.412109 0)"/>
      <use xlink:href="#DejaVuSans-2e" transform="translate(211.035156 0)"/>
      <use xlink:href="#DejaVuSans-36" transform="translate(242.822266 0)"/>
     </g>
    </g>
   </g>
   <g id="text_34">
    <g clip-path="url(#pfcdcbafcaf)">
     <!-- −25.6 -->
     <g style="fill: #0000ff" transform="translate(224.123353 483.056793) rotate(-57.752732) scale(0.08 -0.08)">
      <use xlink:href="#DejaVuSans-2212"/>
      <use xlink:href="#DejaVuSans-32" transform="translate(83.789062 0)"/>
      <use xlink:href="#DejaVuSans-35" transform="translate(147.412109 0)"/>
      <use xlink:href="#DejaVuSans-2e" transform="translate(211.035156 0)"/>
      <use xlink:href="#DejaVuSans-36" transform="translate(242.822266 0)"/>
     </g>
    </g>
   </g>
   <g id="text_35">
    <g clip-path="url(#pfcdcbafcaf)">
     <!-- −25.6 -->
     <g style="fill: #0000ff" transform="translate(218.929521 78.729984) rotate(-308.767786) scale(0.08 -0.08)">
      <use xlink:href="#DejaVuSans-2212"/>
      <use xlink:href="#DejaVuSans-32" transform="translate(83.789062 0)"/>
      <use xlink:href="#DejaVuSans-35" transform="translate(147.412109 0)"/>
      <use xlink:href="#DejaVuSans-2e" transform="translate(211.035156 0)"/>
      <use xlink:href="#DejaVuSans-36" transform="translate(242.822266 0)"/>
     </g>
    </g>
   </g>
   <g id="text_36">
    <g clip-path="url(#pfcdcbafcaf)">
     <!-- 25.6 -->
     <g style="fill: #0000ff" transform="translate(510.387505 499.248041) rotate(-308.381692) scale(0.08 -0.08)">
      <use xlink:href="#DejaVuSans-32"/>
      <use xlink:href="#DejaVuSans-35" transform="translate(63.623047 0)"/>
      <use xlink:href="#DejaVuSans-2e" transform="translate(127.246094 0)"/>
      <use xlink:href="#DejaVuSans-36" transform="translate(159.033203 0)"/>
     </g>
    </g>
   </g>
   <g id="text_37">
    <g clip-path="url(#pfcdcbafcaf)">
     <!-- 25.6 -->
     <g style="fill: #0000ff" transform="translate(221.826798 103.356726) rotate(-302.294028) scale(0.08 -0.08)">
      <use xlink:href="#DejaVuSans-32"/>
      <use xlink:href="#DejaVuSans-35" transform="translate(63.623047 0)"/>
      <use xlink:href="#DejaVuSans-2e" transform="translate(127.246094 0)"/>
      <use xlink:href="#DejaVuSans-36" transform="translate(159.033203 0)"/>
     </g>
    </g>
   </g>
   <g id="text_38">
    <g clip-path="url(#pfcdcbafcaf)">
     <!-- 25.6 -->
     <g style="fill: #0000ff" transform="translate(527.421537 86.135338) rotate(-56.301765) scale(0.08 -0.08)">
      <use xlink:href="#DejaVuSans-32"/>
      <use xlink:href="#DejaVuSans-35" transform="translate(63.623047 0)"/>
      <use xlink:href="#DejaVuSans-2e" transform="translate(127.246094 0)"/>
      <use xlink:href="#DejaVuSans-36" transform="translate(159.033203 0)"/>
     </g>
    </g>
   </g>
   <g id="text_39">
    <g clip-path="url(#pfcdcbafcaf)">
     <!-- 76.7 -->
     <g style="fill: #0000ff" transform="translate(243.206474 499.351683) rotate(-44.675838) scale(0.08 -0.08)">
      <use xlink:href="#DejaVuSans-37"/>
      <use xlink:href="#DejaVuSans-36" transform="translate(63.623047 0)"/>
      <use xlink:href="#DejaVuSans-2e" transform="translate(127.246094 0)"/>
      <use xlink:href="#DejaVuSans-37" transform="translate(159.033203 0)"/>
     </g>
    </g>
   </g>
   <g id="text_40">
    <g clip-path="url(#pfcdcbafcaf)">
     <!-- 76.7 -->
     <g style="fill: #0000ff" transform="translate(191.674597 75.73517) rotate(-298.959521) scale(0.08 -0.08)">
      <use xlink:href="#DejaVuSans-37"/>
      <use xlink:href="#DejaVuSans-36" transform="translate(63.623047 0)"/>
      <use xlink:href="#DejaVuSans-2e" transform="translate(127.246094 0)"/>
      <use xlink:href="#DejaVuSans-37" transform="translate(159.033203 0)"/>
     </g>
    </g>
   </g>
   <g id="text_41">
    <g clip-path="url(#pfcdcbafcaf)">
     <!-- 76.7 -->
     <g style="fill: #0000ff" transform="translate(521.342247 124.822153) rotate(-65.36679) scale(0.08 -0.08)">
      <use xlink:href="#DejaVuSans-37"/>
      <use xlink:href="#DejaVuSans-36" transform="translate(63.623047 0)"/>
      <use xlink:href="#DejaVuSans-2e" transform="translate(127.246094 0)"/>
      <use xlink:href="#DejaVuSans-37" transform="translate(159.033203 0)"/>
     </g>
    </g>
   </g>
   <g id="text_42">
    <g clip-path="url(#pfcdcbafcaf)">
     <!-- 127.8 -->
     <g style="fill: #0000ff" transform="translate(474.20323 497.185408) rotate(-319.814489) scale(0.08 -0.08)">
      <use xlink:href="#DejaVuSans-31"/>
      <use xlink:href="#DejaVuSans-32" transform="translate(63.623047 0)"/>
      <use xlink:href="#DejaVuSans-37" transform="translate(127.246094 0)"/>
      <use xlink:href="#DejaVuSans-2e" transform="translate(190.869141 0)"/>
      <use xlink:href="#DejaVuSans-38" transform="translate(222.65625 0)"/>
     </g>
    </g>
   </g>
   <g id="text_43">
    <g clip-path="url(#pfcdcbafcaf)">
     <!-- 127.8 -->
     <g style="fill: #0000ff" transform="translate(97.644371 263.184364) rotate(-14.473732) scale(0.08 -0.08)">
      <use xlink:href="#DejaVuSans-31"/>
      <use xlink:href="#DejaVuSans-32" transform="translate(63.623047 0)"/>
      <use xlink:href="#DejaVuSans-37" transform="translate(127.246094 0)"/>
      <use xlink:href="#DejaVuSans-2e" transform="translate(190.869141 0)"/>
      <use xlink:href="#DejaVuSans-38" transform="translate(222.65625 0)"/>
     </g>
    </g>
   </g>
   <g id="text_44">
    <g clip-path="url(#pfcdcbafcaf)">
     <!-- 127.8 -->
     <g style="fill: #0000ff" transform="translate(595.901054 249.85358) rotate(-340.878477) scale(0.08 -0.08)">
      <use xlink:href="#DejaVuSans-31"/>
      <use xlink:href="#DejaVuSans-32" transform="translate(63.623047 0)"/>
      <use xlink:href="#DejaVuSans-37" transform="translate(127.246094 0)"/>
      <use xlink:href="#DejaVuSans-2e" transform="translate(190.869141 0)"/>
      <use xlink:href="#DejaVuSans-38" transform="translate(222.65625 0)"/>
     </g>
    </g>
   </g>
   <g id="text_45">
    <g clip-path="url(#pfcdcbafcaf)">
     <!-- 178.9 -->
     <g style="fill: #0000ff" transform="translate(268.68266 508.376431) rotate(-32.157808) scale(0.08 -0.08)">
      <use xlink:href="#DejaVuSans-31"/>
      <use xlink:href="#DejaVuSans-37" transform="translate(63.623047 0)"/>
      <use xlink:href="#DejaVuSans-38" transform="translate(127.246094 0)"/>
      <use xlink:href="#DejaVuSans-2e" transform="translate(190.869141 0)"/>
      <use xlink:href="#DejaVuSans-39" transform="translate(222.65625 0)"/>
     </g>
    </g>
   </g>
   <g id="text_46">
    <g clip-path="url(#pfcdcbafcaf)">
     <!-- 178.9 -->
     <g style="fill: #0000ff" transform="translate(125.799102 240.184679) rotate(-28.94249) scale(0.08 -0.08)">
      <use xlink:href="#DejaVuSans-31"/>
      <use xlink:href="#DejaVuSans-37" transform="translate(63.623047 0)"/>
      <use xlink:href="#DejaVuSans-38" transform="translate(127.246094 0)"/>
      <use xlink:href="#DejaVuSans-2e" transform="translate(190.869141 0)"/>
      <use xlink:href="#DejaVuSans-39" transform="translate(222.65625 0)"/>
     </g>
    </g>
   </g>
   <g id="text_47">
    <g clip-path="url(#pfcdcbafcaf)">
     <!-- 178.9 -->
     <g style="fill: #0000ff" transform="translate(561.231497 93.94412) rotate(-69.096154) scale(0.08 -0.08)">
      <use xlink:href="#DejaVuSans-31"/>
      <use xlink:href="#DejaVuSans-37" transform="translate(63.623047 0)"/>
      <use xlink:href="#DejaVuSans-38" transform="translate(127.246094 0)"/>
      <use xlink:href="#DejaVuSans-2e" transform="translate(190.869141 0)"/>
      <use xlink:href="#DejaVuSans-39" transform="translate(222.65625 0)"/>
     </g>
    </g>
   </g>
   <g id="text_48">
    <g clip-path="url(#pfcdcbafcaf)">
     <!-- 230.0 -->
     <g style="fill: #0000ff" transform="translate(434.892064 502.893897) rotate(-333.792188) scale(0.08 -0.08)">
      <use xlink:href="#DejaVuSans-32"/>
      <use xlink:href="#DejaVuSans-33" transform="translate(63.623047 0)"/>
      <use xlink:href="#DejaVuSans-30" transform="translate(127.246094 0)"/>
      <use xlink:href="#DejaVuSans-2e" transform="translate(190.869141 0)"/>
      <use xlink:href="#DejaVuSans-30" transform="translate(222.65625 0)"/>
     </g>
    </g>
   </g>
   <g id="text_49">
    <g clip-path="url(#pfcdcbafcaf)">
     <!-- 230.0 -->
     <g style="fill: #0000ff" transform="translate(160.18505 76.634795) rotate(-286.305484) scale(0.08 -0.08)">
      <use xlink:href="#DejaVuSans-32"/>
      <use xlink:href="#DejaVuSans-33" transform="translate(63.623047 0)"/>
      <use xlink:href="#DejaVuSans-30" transform="translate(127.246094 0)"/>
      <use xlink:href="#DejaVuSans-2e" transform="translate(190.869141 0)"/>
      <use xlink:href="#DejaVuSans-30" transform="translate(222.65625 0)"/>
     </g>
    </g>
   </g>
   <g id="text_50">
    <g clip-path="url(#pfcdcbafcaf)">
     <!-- 230.0 -->
     <g style="fill: #0000ff" transform="translate(617.556392 227.042509) rotate(-332.874295) scale(0.08 -0.08)">
      <use xlink:href="#DejaVuSans-32"/>
      <use xlink:href="#DejaVuSans-33" transform="translate(63.623047 0)"/>
      <use xlink:href="#DejaVuSans-30" transform="translate(127.246094 0)"/>
      <use xlink:href="#DejaVuSans-2e" transform="translate(190.869141 0)"/>
      <use xlink:href="#DejaVuSans-30" transform="translate(222.65625 0)"/>
     </g>
    </g>
   </g>
  </g>
 </g>
 <defs>
  <clipPath id="pfcdcbafcaf">
   <rect x="90" y="69.12" width="558" height="443.52"/>
  </clipPath>
 </defs>
</svg>
